<?xml version="1.0" encoding="UTF-8"?>
<svg id="Layer_1" data-name="Layer 1" xmlns="http://www.w3.org/2000/svg" viewBox="0 0 1133.62 466.15">
  <defs>
    <style>
      .cls-1 {
        fill: #e8d2a7;
        stroke-width: 5px;
      }

      .cls-1, .cls-2 {
        stroke: #231f20;
        stroke-miterlimit: 10;
      }

      .cls-3 {
        fill: #fff;
      }

      .cls-3, .cls-4 {
        stroke-width: 0px;
      }

      .cls-5 {
        font-family: Garamond-Bold, Garamond;
        font-size: 96.39px;
        font-weight: 700;
      }

      .cls-6 {
        font-family: Circusia, Circusia;
        font-size: 150px;
        isolation: isolate;
      }

      .cls-2 {
        fill: none;
        stroke-width: 4px;
      }

      .cls-7 {
        letter-spacing: 0em;
      }

      .cls-4 {
        fill: #080808;
      }
    </style>
  </defs>
  <path class="cls-1" d="M49.48,159.18H14.5c-6.6,0-12,5.4-12,12v280.47c0,6.6,5.4,12,12,12h44.26"/>
  <path class="cls-1" d="M68,159.18h-34.98c-6.6,0-12,5.4-12,12v280.47c0,6.6,5.4,12,12,12h44.26"/>
  <path class="cls-1" d="M646.73,463.65h-159.84c-6.6,0-12-5.4-12-12V171.18c0-6.6,5.4-12,12-12h159.84c6.6,0,12,5.4,12,12v280.47c0,6.6-5.4,12-12,12Z"/>
  <path class="cls-1" d="M864.23,463.65h-159.84c-6.6,0-12-5.4-12-12V171.18c0-6.6,5.4-12,12-12h159.84c6.6,0,12,5.4,12,12v280.47c0,6.6-5.4,12-12,12Z"/>
  <path class="cls-1" d="M429.23,463.65h-159.84c-6.6,0-12-5.4-12-12V171.18c0-6.6,5.4-12,12-12h159.84c6.6,0,12,5.4,12,12v280.47c0,6.6-5.4,12-12,12Z"/>
  <path class="cls-1" d="M211.73,463.65H51.89c-6.6,0-12-5.4-12-12V171.18c0-6.6,5.4-12,12-12h159.84c6.6,0,12,5.4,12,12v280.47c0,6.6-5.4,12-12,12Z"/>
  <path class="cls-1" d="M1084.14,159.18h34.98c6.6,0,12,5.4,12,12v280.47c0,6.6-5.4,12-12,12h-44.26"/>
  <path class="cls-1" d="M1065.62,159.18h34.98c6.6,0,12,5.4,12,12v280.47c0,6.6-5.4,12-12,12h-44.26"/>
  <path class="cls-1" d="M1081.73,463.65h-159.84c-6.6,0-12-5.4-12-12V171.18c0-6.6,5.4-12,12-12h159.84c6.6,0,12,5.4,12,12v280.47c0,6.6-5.4,12-12,12Z"/>
  <text class="cls-6" transform="translate(66.77 364.01)"><tspan x="0" y="0">T</tspan></text>
  <text class="cls-6" transform="translate(305.81 359.66)"><tspan x="0" y="0">A</tspan></text>
  <text class="cls-6" transform="translate(525.36 368.27)"><tspan x="0" y="0">R</tspan></text>
  <text class="cls-6" transform="translate(743.72 364.01)"><tspan x="0" y="0">O</tspan></text>
  <text class="cls-6" transform="translate(946.56 364.01)"><tspan x="0" y="0">T</tspan></text>
  <path class="cls-2" d="M187.82,172.91h-112.03c0,11.05-8.95,20-20,20v237c11.05,0,20,8.95,20,20h112.03c0-11.05,8.95-20,20-20v-237c-11.05,0-20-8.95-20-20Z"/>
  <path class="cls-2" d="M405.32,172.91h-112.03c0,11.05-8.95,20-20,20v237c11.05,0,20,8.95,20,20h112.03c0-11.05,8.95-20,20-20v-237c-11.05,0-20-8.95-20-20Z"/>
  <path class="cls-2" d="M622.82,172.91h-112.03c0,11.05-8.95,20-20,20v237c11.05,0,20,8.95,20,20h112.03c0-11.05,8.95-20,20-20v-237c-11.05,0-20-8.95-20-20Z"/>
  <path class="cls-2" d="M840.32,172.91h-112.03c0,11.05-8.95,20-20,20v237c11.05,0,20,8.95,20,20h112.03c0-11.05,8.95-20,20-20v-237c-11.05,0-20-8.95-20-20Z"/>
  <path class="cls-2" d="M1057.82,172.91h-112.03c0,11.05-8.95,20-20,20v237c11.05,0,20,8.95,20,20h112.03c0-11.05,8.95-20,20-20v-237c-11.05,0-20-8.95-20-20Z"/>
  <circle class="cls-2" cx="640.03" cy="446.4" r="6.98"/>
  <circle class="cls-2" cx="494.05" cy="446.4" r="6.98"/>
  <circle class="cls-2" cx="640.03" cy="176.32" r="6.98"/>
  <circle class="cls-2" cx="494.05" cy="176.32" r="6.98"/>
  <circle class="cls-2" cx="204.8" cy="446.4" r="6.98"/>
  <circle class="cls-2" cx="58.82" cy="446.4" r="6.98"/>
  <circle class="cls-2" cx="204.8" cy="176.32" r="6.98"/>
  <circle class="cls-2" cx="58.82" cy="176.32" r="6.98"/>
  <circle class="cls-2" cx="422.3" cy="446.4" r="6.98"/>
  <circle class="cls-2" cx="276.32" cy="446.4" r="6.98"/>
  <circle class="cls-2" cx="422.3" cy="176.32" r="6.98"/>
  <circle class="cls-2" cx="276.32" cy="176.32" r="6.98"/>
  <circle class="cls-2" cx="857.3" cy="446.51" r="6.98"/>
  <circle class="cls-2" cx="711.32" cy="446.51" r="6.98"/>
  <circle class="cls-2" cx="857.3" cy="176.43" r="6.98"/>
  <circle class="cls-2" cx="711.32" cy="176.43" r="6.98"/>
  <circle class="cls-2" cx="1074.8" cy="446.51" r="6.98"/>
  <circle class="cls-2" cx="928.82" cy="446.51" r="6.98"/>
  <circle class="cls-2" cx="1074.8" cy="176.43" r="6.98"/>
  <circle class="cls-2" cx="928.82" cy="176.43" r="6.98"/>
  <text class="cls-5" transform="translate(182.09 78.99)"><tspan x="0" y="0">An Int</tspan><tspan class="cls-7" x="262.11" y="0">r</tspan><tspan x="296.19" y="0">oduction to</tspan></text>
  <g>
    <polygon class="cls-4" points="142.23 105.82 148.23 105.71 148.23 109.29 142.23 109.18 142.23 105.82"/>
    <polygon class="cls-4" points="160.36 105.48 172.49 105.25 172.49 109.76 160.36 109.52 160.36 105.48"/>
    <polygon class="cls-4" points="184.63 105.02 190.69 104.95 196.76 104.94 196.76 110.06 190.69 110.06 184.63 109.99 184.63 105.02"/>
    <rect class="cls-4" x="208.89" y="105" width="12.13" height="5"/>
    <rect class="cls-4" x="233.16" y="105" width="12.13" height="5"/>
    <rect class="cls-4" x="257.42" y="105" width="12.13" height="5"/>
    <rect class="cls-4" x="281.69" y="105" width="12.13" height="5"/>
    <rect class="cls-4" x="305.95" y="105" width="12.13" height="5"/>
    <rect class="cls-4" x="330.22" y="105" width="12.13" height="5"/>
    <rect class="cls-4" x="354.49" y="105" width="12.13" height="5"/>
    <rect class="cls-4" x="378.75" y="105" width="12.13" height="5"/>
    <rect class="cls-4" x="403.02" y="105" width="12.13" height="5"/>
    <rect class="cls-4" x="427.28" y="105" width="12.13" height="5"/>
    <rect class="cls-4" x="451.55" y="105" width="12.13" height="5"/>
    <rect class="cls-4" x="475.81" y="105" width="12.13" height="5"/>
    <rect class="cls-4" x="500.08" y="105" width="12.13" height="5"/>
    <rect class="cls-4" x="524.35" y="105" width="12.13" height="5"/>
    <rect class="cls-4" x="548.61" y="105" width="12.13" height="5"/>
    <rect class="cls-4" x="572.88" y="105" width="12.13" height="5"/>
    <rect class="cls-4" x="597.14" y="105" width="12.13" height="5"/>
    <rect class="cls-4" x="621.41" y="105" width="12.13" height="5"/>
    <rect class="cls-4" x="645.67" y="105" width="12.13" height="5"/>
    <rect class="cls-4" x="669.94" y="105" width="12.13" height="5"/>
    <rect class="cls-4" x="694.2" y="105" width="12.13" height="5"/>
    <rect class="cls-4" x="718.47" y="105" width="12.13" height="5"/>
    <rect class="cls-4" x="742.74" y="105" width="12.13" height="5"/>
    <rect class="cls-4" x="767" y="105" width="12.13" height="5"/>
    <rect class="cls-4" x="791.27" y="105" width="12.13" height="5"/>
    <rect class="cls-4" x="815.53" y="105" width="12.13" height="5"/>
    <rect class="cls-4" x="839.8" y="105" width="12.13" height="5"/>
    <rect class="cls-4" x="864.06" y="105" width="12.13" height="5"/>
    <rect class="cls-4" x="888.33" y="105" width="12.13" height="5"/>
    <rect class="cls-4" x="912.59" y="105" width="12.13" height="5"/>
    <path class="cls-4" d="M936.86,104.95c4.04-.02,8.09.02,12.13.1v4.9c-4.04.08-8.09.12-12.13.1v-5.1Z"/>
    <polygon class="cls-4" points="961.13 105.28 973.26 105.51 973.26 109.49 961.13 109.72 961.13 105.28"/>
    <polygon class="cls-4" points="985.39 105.74 991.39 105.85 991.39 109.15 985.39 109.26 985.39 105.74"/>
    <g>
      <path class="cls-4" d="M144.13,127.68c-2.61-.1-6.28-.15-11.8.05-2.56.1-3.16-.96-4.02-5.43-.37-1.94-1.86-.91-3.96-1.5-1.91-.75-2.26-5.33-2.26-5.33-.02-1.03-.58-1.05-.9-.9-7.48,3.16-15.39-1.63-15.57-.81-1.38,3.78-5.15,3.49-5.62,2.51.1,1.7-2.51,3.11-3.31,2.71-2.89-1.53-2.94-2.64-4.95-3.34-3.67-1.58-2.89-3.3-6.4-3.49-2.56-.14-3.41-.56-4.02-1.1-2.66-2.61-.35-6.07,1.25-7.23-.6-2.71,3.32-6.01,4.22-8.27-1.21-.02-3.04-.3-5.87-1.26-1.48-.51-1.13.23-3.72-.03-3.49-.31-4.82-.67-5.93-1.18-.64-.3-4.02-.22-5.77-.83-5.58-.81-4.7-5.83-4.57-6.3.05-.2.1-.2,1.14-.2,1.41.1,3.93-.63,5.99-.3.8.1,2.06-.25,4.01,0,2.44-.43,4.22.22,7.06-.79.43-.13.33.28,1.28.19.5-.05.44-.45,1.92-.28,1.69.2,3.86.02,5.91.02s3.67-.42,8.69-.84c2.06-.18,3.67-1.11,5.17-.36,2.29,1.14,10.24,4.62,18.78,8.84.18.09.93.51,1.41-.61.96-1.77,1.51-1.25,4.87-1.15,2.4-.1.62-1.94,3.26-1.88,4.07.09,5.66.42,11.6.3,2.41-.05,3.07-.14,3.11,1.57v36.13c0,.55-.25,1.11-1,1.11Z"/>
      <path class="cls-3" d="M62.13,86.96c-.15,1.6,2.81,1.21,3.99.97.7-.14,1.23-1.25.53-1.5l-4.36.4c-.06,0-.16.1-.15.14Z"/>
      <path class="cls-3" d="M85.67,105.59c1.71.26,1.55.96,2.47.84,1.21-.17.13-.63,4.27-.53,1.2,0,1.86-.08,2.66.42.4-.33,1.35-.78,2.01-.21,1.5-.3.97-.48,3.52.1,3.43.78,4.11-.62,5.71-1.4.42-.2.71-.35,1.54-.22,6.33.77,3.59.75,12.36.21,3.04-.58,4.21-2.21,4.09-6.33-.25-4.67-1.25-4.02-3.81-5.12-10.4-4.62-17.37-8.58-20.08-8.38-7.69.1-6.28,1.51-16.42,1.21-3.21-.4-3.12,1.25-4.32,1.05-.91-.5-.16-.99-3.27-.7-6.3.58-7.56-.5-8.13.5-.77,1.34-.75,2.18-4.84,1.83-.34-.02-.44-.03-.64-.07-.5-.12-.53.18-.04.55.4.31,3.73,1.92,7.63,1.3,2.21-.35,1.06.51,4.72.51,1.61-.11,2.61-.11,3.11-.21,1.61.61,4.72.65,5.73.41,1.23-.31,1.8-.71,2.91-.11,1.1.61,3.52,1.44,7.13,1.01,4.22-.5,3.99-1.32,4.42-1.01.98.75-1.03,2.12,1.05,3.72,1.07.82,2.21-2.46,3.27-2.41.63.09.75.66.45,1.36-.14.33-1.4,2.19-.35,2.96,1.71,1.26,4.77-2.51,7.13-.95.55.42-.04,1.03-.7.95-1.14-.14-3.07.96-3.87,1.66-1.05.95-4.07,2.41-5.18,2.86-3.92,1.61-5.22.41-5.92,1.41-.6.75-1.82-.38-3.21-.61-2.63-.43-8.66,1.73-8.09,3.07.22.44.63.41,1.17.3.56-.09.78-.1,1.53.01Z"/>
      <path class="cls-3" d="M87.14,108.84c-.61-1.31-.67-1.48-1.93-1.76-1.11-.24-4.32.7-3.89,2.06.33.42,1.68.45,2.53.65.9.21,3.72.53,3.29-.95Z"/>
      <path class="cls-3" d="M126.64,119.47c-1.29-.06-1.44-.85-1.65-1.69-.29-1.21.61-6.23.71-12.55.1-6.32-.1-8.13-.41-11.55-.07-.84-.75-1.89.41-1.95,3.76-.21,4.92-.51,5.52,2.45.7,3.47.8,16.93-.1,24-.31.56.45,1.67-4.48,1.29Z"/>
    </g>
    <g>
      <path class="cls-4" d="M989.49,127.68c2.61-.1,6.28-.15,11.8.05,2.56.1,3.16-.96,4.02-5.43.37-1.94,1.86-.91,3.96-1.5,1.91-.75,2.26-5.33,2.26-5.33.02-1.03.58-1.05.9-.9,7.48,3.16,15.39-1.63,15.57-.81,1.38,3.78,5.15,3.49,5.62,2.51-.1,1.7,2.51,3.11,3.31,2.71,2.89-1.53,2.94-2.64,4.95-3.34,3.67-1.58,2.89-3.3,6.4-3.49,2.56-.14,3.41-.56,4.02-1.1,2.66-2.61.35-6.07-1.25-7.23.6-2.71-3.32-6.01-4.22-8.27,1.21-.02,3.04-.3,5.87-1.26,1.48-.51,1.13.23,3.72-.03,3.49-.31,4.82-.67,5.93-1.18.64-.3,4.02-.22,5.77-.83,5.58-.81,4.7-5.83,4.57-6.3-.05-.2-.1-.2-1.14-.2-1.41.1-3.93-.63-5.99-.3-.8.1-2.06-.25-4.01,0-2.44-.43-4.22.22-7.06-.79-.42-.13-.33.28-1.28.19-.5-.05-.44-.45-1.92-.28-1.69.2-3.86.02-5.91.02s-3.67-.42-8.69-.84c-2.06-.18-3.67-1.11-5.17-.36-2.29,1.14-10.24,4.62-18.78,8.84-.18.09-.93.51-1.41-.61-.96-1.77-1.51-1.25-4.87-1.15-2.4-.1-.62-1.94-3.26-1.88-4.07.09-5.66.42-11.6.3-2.41-.05-3.07-.14-3.11,1.57v36.13c0,.55.25,1.11,1,1.11Z"/>
      <path class="cls-3" d="M1071.49,86.96c.15,1.6-2.81,1.21-3.99.97-.7-.14-1.23-1.25-.53-1.5l4.36.4c.06,0,.16.1.15.14Z"/>
      <path class="cls-3" d="M1047.95,105.59c-1.71.26-1.55.96-2.47.84-1.21-.17-.13-.63-4.27-.53-1.2,0-1.86-.08-2.66.42-.4-.33-1.35-.78-2.01-.21-1.5-.3-.97-.48-3.52.1-3.43.78-4.11-.62-5.71-1.4-.42-.2-.71-.35-1.54-.22-6.33.77-3.59.75-12.36.21-3.04-.58-4.21-2.21-4.09-6.33.25-4.67,1.25-4.02,3.81-5.12,10.4-4.62,17.37-8.58,20.08-8.38,7.69.1,6.28,1.51,16.42,1.21,3.21-.4,3.12,1.25,4.32,1.05.91-.5.16-.99,3.27-.7,6.3.58,7.56-.5,8.14.5.77,1.34.75,2.18,4.84,1.83.34-.02.44-.03.64-.07.5-.12.53.18.04.55-.4.31-3.73,1.92-7.63,1.3-2.21-.35-1.06.51-4.72.51-1.61-.11-2.61-.11-3.11-.21-1.61.61-4.72.65-5.73.41-1.23-.31-1.8-.71-2.91-.11-1.1.61-3.52,1.44-7.13,1.01-4.22-.5-3.99-1.32-4.42-1.01-.98.75,1.03,2.12-1.05,3.72-1.07.82-2.21-2.46-3.27-2.41-.63.09-.75.66-.45,1.36.14.33,1.4,2.19.35,2.96-1.71,1.26-4.77-2.51-7.13-.95-.55.42.04,1.03.7.95,1.14-.14,3.07.96,3.87,1.66,1.05.95,4.07,2.41,5.18,2.86,3.92,1.61,5.22.41,5.92,1.41.6.75,1.82-.38,3.21-.61,2.63-.43,8.66,1.73,8.09,3.07-.22.44-.63.41-1.17.3-.56-.09-.78-.1-1.53.01Z"/>
      <path class="cls-3" d="M1046.48,108.84c.61-1.31.67-1.48,1.93-1.76,1.11-.24,4.32.7,3.89,2.06-.33.42-1.68.45-2.53.65-.9.21-3.72.53-3.29-.95Z"/>
      <path class="cls-3" d="M1006.98,119.47c1.29-.06,1.44-.85,1.65-1.69.29-1.21-.61-6.23-.71-12.55-.1-6.32.1-8.13.41-11.55.07-.84.75-1.89-.41-1.95-3.76-.21-4.92-.51-5.52,2.45-.7,3.47-.8,16.93.1,24,.31.56-.45,1.67,4.48,1.29Z"/>
    </g>
  </g>
</svg>